<svg xmlns="http://www.w3.org/2000/svg" xmlns:xlink="http://www.w3.org/1999/xlink" width="500" zoomAndPan="magnify" viewBox="0 0 375 374.999991" height="500" preserveAspectRatio="xMidYMid meet" version="1.0"><defs><clipPath id="e79d4d0761"><path d="M 114.945312 105.976562 L 259.695312 105.976562 L 259.695312 250.726562 L 114.945312 250.726562 Z M 114.945312 105.976562 " clip-rule="nonzero"/></clipPath></defs><g clip-path="url(#e79d4d0761)"><path fill="#00ff00" d="M 187.320312 250.726562 C 227.289062 250.726562 259.695312 218.324219 259.695312 178.351562 C 259.695312 138.382812 227.289062 105.976562 187.320312 105.976562 C 147.351562 105.976562 114.945312 138.382812 114.945312 178.351562 C 114.945312 218.324219 147.351562 250.726562 187.320312 250.726562 Z M 152.898438 174.089844 L 177.023438 149.964844 C 178.203125 148.789062 179.746094 148.195312 181.289062 148.195312 C 182.832031 148.195312 184.378906 148.789062 185.554688 149.964844 C 187.910156 152.324219 187.910156 156.132812 185.554688 158.492188 L 171.722656 172.320312 L 217.476562 172.320312 C 220.804688 172.320312 223.507812 175.019531 223.507812 178.351562 C 223.507812 181.6875 220.804688 184.382812 217.476562 184.382812 L 171.722656 184.382812 L 185.554688 198.214844 C 187.910156 200.574219 187.910156 204.382812 185.554688 206.742188 C 183.195312 209.101562 179.382812 209.101562 177.023438 206.742188 L 152.898438 182.617188 C 150.542969 180.257812 150.542969 176.449219 152.898438 174.089844 Z M 152.898438 174.089844 " fill-opacity="1" fill-rule="nonzero"/></g></svg>