<svg xmlns="http://www.w3.org/2000/svg" xmlns:xlink="http://www.w3.org/1999/xlink" width="500" zoomAndPan="magnify" viewBox="0 0 375 374.999991" height="500" preserveAspectRatio="xMidYMid meet" version="1.0"><defs><clipPath id="20ab40ea30"><path d="M 112.5 112.5 L 262.5 112.5 L 262.5 262.5 L 112.5 262.5 Z M 112.5 112.5 " clip-rule="nonzero"/></clipPath></defs><g clip-path="url(#20ab40ea30)"><path fill="#00ff00" d="M 187.5 112.5 C 186.273438 112.5 185.046875 112.53125 183.820312 112.589844 C 182.59375 112.652344 181.371094 112.742188 180.148438 112.859375 C 178.925781 112.980469 177.710938 113.132812 176.496094 113.3125 C 175.28125 113.492188 174.070312 113.703125 172.867188 113.941406 C 171.664062 114.179688 170.46875 114.449219 169.277344 114.746094 C 168.085938 115.046875 166.902344 115.375 165.730469 115.730469 C 164.554688 116.085938 163.390625 116.46875 162.234375 116.882812 C 161.078125 117.296875 159.933594 117.738281 158.796875 118.210938 C 157.664062 118.679688 156.542969 119.175781 155.433594 119.699219 C 154.324219 120.226562 153.226562 120.777344 152.144531 121.355469 C 151.0625 121.933594 149.996094 122.539062 148.941406 123.171875 C 147.890625 123.800781 146.851562 124.457031 145.832031 125.140625 C 144.8125 125.820312 143.808594 126.527344 142.824219 127.257812 C 141.835938 127.992188 140.871094 128.746094 139.921875 129.523438 C 138.972656 130.304688 138.042969 131.105469 137.132812 131.929688 C 136.222656 132.753906 135.335938 133.597656 134.46875 134.46875 C 133.597656 135.335938 132.753906 136.222656 131.929688 137.132812 C 131.105469 138.042969 130.304688 138.972656 129.523438 139.921875 C 128.746094 140.871094 127.992188 141.835938 127.257812 142.824219 C 126.527344 143.808594 125.820312 144.8125 125.140625 145.832031 C 124.457031 146.851562 123.800781 147.890625 123.171875 148.941406 C 122.539062 149.996094 121.933594 151.0625 121.355469 152.144531 C 120.777344 153.226562 120.226562 154.324219 119.699219 155.433594 C 119.175781 156.542969 118.679688 157.664062 118.210938 158.796875 C 117.738281 159.933594 117.296875 161.078125 116.882812 162.234375 C 116.46875 163.390625 116.085938 164.554688 115.730469 165.730469 C 115.375 166.902344 115.046875 168.085938 114.746094 169.277344 C 114.449219 170.46875 114.179688 171.664062 113.941406 172.867188 C 113.703125 174.070312 113.492188 175.28125 113.3125 176.496094 C 113.132812 177.710938 112.980469 178.925781 112.859375 180.148438 C 112.742188 181.371094 112.652344 182.59375 112.589844 183.820312 C 112.53125 185.046875 112.5 186.273438 112.5 187.5 C 112.5 188.726562 112.53125 189.953125 112.589844 191.179688 C 112.652344 192.40625 112.742188 193.628906 112.859375 194.851562 C 112.980469 196.074219 113.132812 197.289062 113.3125 198.503906 C 113.492188 199.71875 113.703125 200.929688 113.941406 202.132812 C 114.179688 203.335938 114.449219 204.53125 114.746094 205.722656 C 115.046875 206.914062 115.375 208.097656 115.730469 209.269531 C 116.085938 210.445312 116.46875 211.609375 116.882812 212.765625 C 117.296875 213.921875 117.738281 215.066406 118.210938 216.203125 C 118.679688 217.335938 119.175781 218.457031 119.699219 219.566406 C 120.226562 220.675781 120.777344 221.773438 121.355469 222.855469 C 121.933594 223.9375 122.539062 225.003906 123.171875 226.058594 C 123.800781 227.109375 124.457031 228.148438 125.140625 229.167969 C 125.820312 230.1875 126.527344 231.191406 127.257812 232.175781 C 127.992188 233.164062 128.746094 234.128906 129.523438 235.078125 C 130.304688 236.027344 131.105469 236.957031 131.929688 237.867188 C 132.753906 238.777344 133.597656 239.664062 134.46875 240.53125 C 135.335938 241.402344 136.222656 242.246094 137.132812 243.070312 C 138.042969 243.894531 138.972656 244.695312 139.921875 245.476562 C 140.871094 246.253906 141.835938 247.007812 142.824219 247.742188 C 143.808594 248.472656 144.8125 249.179688 145.832031 249.859375 C 146.851562 250.542969 147.890625 251.199219 148.941406 251.828125 C 149.996094 252.460938 151.0625 253.066406 152.144531 253.644531 C 153.226562 254.222656 154.324219 254.773438 155.433594 255.300781 C 156.542969 255.824219 157.664062 256.320312 158.796875 256.789062 C 159.933594 257.261719 161.078125 257.703125 162.234375 258.117188 C 163.390625 258.527344 164.554688 258.914062 165.730469 259.269531 C 166.902344 259.625 168.085938 259.953125 169.277344 260.253906 C 170.46875 260.550781 171.664062 260.820312 172.867188 261.058594 C 174.070312 261.296875 175.28125 261.507812 176.496094 261.6875 C 177.710938 261.867188 178.925781 262.019531 180.148438 262.140625 C 181.371094 262.257812 182.59375 262.347656 183.820312 262.410156 C 185.046875 262.46875 186.273438 262.5 187.5 262.5 C 188.726562 262.5 189.953125 262.46875 191.179688 262.410156 C 192.40625 262.347656 193.628906 262.257812 194.851562 262.140625 C 196.074219 262.019531 197.289062 261.867188 198.503906 261.6875 C 199.71875 261.507812 200.929688 261.296875 202.132812 261.058594 C 203.335938 260.820312 204.53125 260.550781 205.722656 260.253906 C 206.914062 259.953125 208.097656 259.625 209.269531 259.269531 C 210.445312 258.914062 211.609375 258.527344 212.765625 258.117188 C 213.921875 257.703125 215.066406 257.261719 216.203125 256.789062 C 217.335938 256.320312 218.457031 255.824219 219.566406 255.300781 C 220.675781 254.773438 221.773438 254.222656 222.855469 253.644531 C 223.9375 253.066406 225.003906 252.460938 226.058594 251.828125 C 227.109375 251.199219 228.148438 250.542969 229.167969 249.859375 C 230.1875 249.179688 231.191406 248.472656 232.175781 247.742188 C 233.164062 247.007812 234.128906 246.253906 235.078125 245.476562 C 236.027344 244.695312 236.957031 243.894531 237.867188 243.070312 C 238.777344 242.246094 239.664062 241.402344 240.53125 240.53125 C 241.402344 239.664062 242.246094 238.777344 243.070312 237.867188 C 243.894531 236.957031 244.695312 236.027344 245.476562 235.078125 C 246.253906 234.128906 247.007812 233.164062 247.742188 232.175781 C 248.472656 231.191406 249.179688 230.1875 249.859375 229.167969 C 250.542969 228.148438 251.199219 227.109375 251.828125 226.058594 C 252.460938 225.003906 253.066406 223.9375 253.644531 222.855469 C 254.222656 221.773438 254.773438 220.675781 255.300781 219.566406 C 255.824219 218.457031 256.320312 217.335938 256.789062 216.203125 C 257.261719 215.066406 257.703125 213.921875 258.117188 212.765625 C 258.527344 211.609375 258.914062 210.445312 259.269531 209.269531 C 259.625 208.097656 259.953125 206.914062 260.253906 205.722656 C 260.550781 204.53125 260.820312 203.335938 261.058594 202.132812 C 261.296875 200.929688 261.507812 199.71875 261.6875 198.503906 C 261.867188 197.289062 262.019531 196.074219 262.140625 194.851562 C 262.257812 193.628906 262.347656 192.40625 262.410156 191.179688 C 262.46875 189.953125 262.5 188.726562 262.5 187.5 C 262.5 186.273438 262.46875 185.046875 262.410156 183.820312 C 262.347656 182.59375 262.257812 181.371094 262.136719 180.148438 C 262.015625 178.925781 261.867188 177.710938 261.6875 176.496094 C 261.507812 175.28125 261.296875 174.074219 261.058594 172.867188 C 260.816406 171.664062 260.546875 170.46875 260.25 169.277344 C 259.953125 168.085938 259.625 166.902344 259.269531 165.730469 C 258.910156 164.554688 258.527344 163.390625 258.113281 162.234375 C 257.699219 161.078125 257.257812 159.933594 256.789062 158.800781 C 256.320312 157.667969 255.820312 156.542969 255.296875 155.433594 C 254.773438 154.324219 254.21875 153.230469 253.640625 152.148438 C 253.0625 151.066406 252.457031 149.996094 251.828125 148.945312 C 251.195312 147.890625 250.539062 146.855469 249.855469 145.835938 C 249.175781 144.8125 248.46875 143.8125 247.738281 142.824219 C 247.007812 141.839844 246.25 140.871094 245.472656 139.921875 C 244.695312 138.972656 243.894531 138.046875 243.070312 137.136719 C 242.246094 136.226562 241.398438 135.335938 240.53125 134.46875 C 239.664062 133.601562 238.773438 132.753906 237.863281 131.929688 C 236.953125 131.105469 236.027344 130.304688 235.078125 129.527344 C 234.128906 128.75 233.160156 127.992188 232.175781 127.261719 C 231.1875 126.53125 230.1875 125.824219 229.164062 125.144531 C 228.144531 124.460938 227.109375 123.804688 226.054688 123.171875 C 225.003906 122.542969 223.933594 121.9375 222.851562 121.359375 C 221.769531 120.78125 220.675781 120.226562 219.566406 119.703125 C 218.457031 119.179688 217.332031 118.679688 216.199219 118.210938 C 215.066406 117.742188 213.921875 117.300781 212.765625 116.886719 C 211.609375 116.472656 210.445312 116.089844 209.269531 115.730469 C 208.097656 115.375 206.914062 115.046875 205.722656 114.75 C 204.53125 114.449219 203.335938 114.183594 202.132812 113.941406 C 200.925781 113.703125 199.71875 113.492188 198.503906 113.3125 C 197.289062 113.132812 196.074219 112.984375 194.851562 112.863281 C 193.628906 112.742188 192.40625 112.652344 191.179688 112.589844 C 189.953125 112.53125 188.726562 112.5 187.5 112.5 Z M 152.953125 150.492188 L 222.046875 150.492188 C 222.777344 150.492188 223.503906 150.554688 224.222656 150.683594 C 224.945312 150.8125 225.648438 151.003906 226.332031 151.257812 C 227.019531 151.511719 227.675781 151.828125 228.308594 152.199219 C 228.9375 152.570312 229.53125 152.992188 230.085938 153.46875 C 230.636719 153.945312 231.148438 154.46875 231.609375 155.035156 C 232.070312 155.601562 232.476562 156.207031 232.832031 156.847656 C 233.1875 157.488281 233.480469 158.152344 233.71875 158.84375 C 233.953125 159.539062 234.125 160.246094 234.234375 160.96875 C 233.25 161.507812 195.28125 183.398438 192.773438 184.828125 C 191.96875 185.285156 191.121094 185.628906 190.226562 185.863281 C 189.332031 186.097656 188.425781 186.214844 187.5 186.214844 C 186.574219 186.214844 185.667969 186.097656 184.773438 185.863281 C 183.878906 185.628906 183.03125 185.285156 182.226562 184.828125 C 179.765625 183.421875 141.703125 161.742188 140.765625 161.15625 C 140.863281 160.425781 141.027344 159.707031 141.253906 159.003906 C 141.480469 158.300781 141.769531 157.625 142.117188 156.972656 C 142.46875 156.324219 142.871094 155.710938 143.332031 155.132812 C 143.792969 154.554688 144.300781 154.019531 144.855469 153.535156 C 145.410156 153.046875 146.007812 152.617188 146.640625 152.238281 C 147.273438 151.859375 147.9375 151.539062 148.628906 151.277344 C 149.320312 151.019531 150.027344 150.824219 150.753906 150.691406 C 151.480469 150.558594 152.214844 150.492188 152.953125 150.492188 Z M 234.375 212.179688 C 234.375 212.988281 234.292969 213.789062 234.136719 214.582031 C 233.976562 215.378906 233.742188 216.148438 233.433594 216.894531 C 233.121094 217.640625 232.742188 218.351562 232.292969 219.023438 C 231.84375 219.699219 231.332031 220.320312 230.757812 220.890625 C 230.1875 221.464844 229.566406 221.976562 228.890625 222.425781 C 228.21875 222.875 227.507812 223.253906 226.761719 223.566406 C 226.015625 223.875 225.246094 224.109375 224.449219 224.269531 C 223.65625 224.425781 222.855469 224.507812 222.046875 224.507812 L 152.953125 224.507812 C 152.144531 224.507812 151.34375 224.425781 150.550781 224.269531 C 149.753906 224.109375 148.984375 223.875 148.238281 223.566406 C 147.492188 223.253906 146.78125 222.875 146.109375 222.425781 C 145.433594 221.976562 144.8125 221.464844 144.238281 220.890625 C 143.667969 220.320312 143.15625 219.699219 142.707031 219.023438 C 142.257812 218.351562 141.878906 217.640625 141.566406 216.894531 C 141.257812 216.148438 141.023438 215.378906 140.863281 214.582031 C 140.707031 213.789062 140.625 212.988281 140.625 212.179688 L 140.625 166.757812 L 179.8125 189.117188 C 180.984375 189.785156 182.222656 190.292969 183.53125 190.636719 C 184.835938 190.984375 186.160156 191.15625 187.511719 191.15625 C 188.863281 191.15625 190.1875 190.984375 191.492188 190.636719 C 192.800781 190.292969 194.039062 189.785156 195.210938 189.117188 L 234.375 166.570312 Z M 234.375 212.179688 " fill-opacity="1" fill-rule="nonzero"/></g></svg>