<svg xmlns="http://www.w3.org/2000/svg" xmlns:xlink="http://www.w3.org/1999/xlink" width="500" zoomAndPan="magnify" viewBox="0 0 375 374.999991" height="500" preserveAspectRatio="xMidYMid meet" version="1.0"><defs><clipPath id="a3154bb082"><path d="M 112.5 100.542969 L 262.5 100.542969 L 262.5 250.542969 L 112.5 250.542969 Z M 112.5 100.542969 " clip-rule="nonzero"/></clipPath></defs><g clip-path="url(#a3154bb082)"><path fill="#00ff00" d="M 249.96875 100.542969 L 125.105469 100.542969 C 118.203125 100.542969 112.648438 106.171875 112.648438 113 L 112.648438 238.085938 C 112.648438 244.992188 118.277344 250.542969 125.105469 250.542969 L 249.894531 250.542969 C 256.796875 250.542969 262.351562 244.914062 262.351562 238.085938 L 262.351562 113 C 262.425781 106.171875 256.871094 100.542969 249.96875 100.542969 Z M 156.996094 224.28125 L 134.859375 224.28125 L 134.859375 157.796875 L 156.996094 157.796875 Z M 145.890625 149.769531 C 138.914062 149.769531 133.285156 144.140625 133.285156 137.160156 C 133.285156 130.183594 138.914062 124.554688 145.890625 124.554688 C 152.871094 124.554688 158.496094 130.183594 158.496094 137.160156 C 158.496094 144.140625 152.871094 149.769531 145.890625 149.769531 Z M 240.289062 224.28125 L 218.078125 224.28125 L 217.550781 184.8125 C 217.550781 184.8125 218.078125 174.304688 206.597656 174.378906 C 195.117188 174.457031 193.539062 184.8125 193.539062 184.8125 L 193.539062 224.28125 L 171.179688 224.28125 L 171.179688 157.796875 L 192.640625 157.796875 L 192.640625 166.953125 C 192.640625 166.953125 193.539062 163.949219 198.492188 160.421875 C 203.445312 156.898438 211.625 156.144531 215.152344 156.296875 C 218.679688 156.445312 223.480469 155.847656 231.507812 161.398438 C 240.140625 167.328125 240.363281 182.859375 240.363281 182.859375 Z M 240.289062 224.28125 " fill-opacity="1" fill-rule="nonzero"/></g></svg>