<svg xmlns="http://www.w3.org/2000/svg" xmlns:xlink="http://www.w3.org/1999/xlink" width="500" zoomAndPan="magnify" viewBox="0 0 375 374.999991" height="500" preserveAspectRatio="xMidYMid meet" version="1.0"><defs><g/><clipPath id="6a37e39d93"><path d="M 53.214844 96.875 L 322.148438 96.875 L 322.148438 275.621094 L 53.214844 275.621094 Z M 53.214844 96.875 " clip-rule="nonzero"/></clipPath><clipPath id="34b81ee811"><path d="M 95.066406 93.167969 L 280.328125 93.167969 L 280.328125 279.226562 L 95.066406 279.226562 Z M 95.066406 93.167969 " clip-rule="nonzero"/></clipPath><clipPath id="2d6a324f17"><path d="M 71.789062 193.726562 L 80.367188 193.726562 L 80.367188 202.300781 L 71.789062 202.300781 Z M 71.789062 193.726562 " clip-rule="nonzero"/></clipPath><clipPath id="a492db4879"><path d="M 76.078125 193.726562 C 73.710938 193.726562 71.789062 195.644531 71.789062 198.011719 C 71.789062 200.382812 73.710938 202.300781 76.078125 202.300781 C 78.445312 202.300781 80.367188 200.382812 80.367188 198.011719 C 80.367188 195.644531 78.445312 193.726562 76.078125 193.726562 " clip-rule="nonzero"/></clipPath><clipPath id="674cff9f14"><path d="M 294.882812 193.726562 L 303.457031 193.726562 L 303.457031 202.300781 L 294.882812 202.300781 Z M 294.882812 193.726562 " clip-rule="nonzero"/></clipPath><clipPath id="aefe18e24a"><path d="M 299.167969 193.726562 C 296.800781 193.726562 294.882812 195.644531 294.882812 198.011719 C 294.882812 200.382812 296.800781 202.300781 299.167969 202.300781 C 301.539062 202.300781 303.457031 200.382812 303.457031 198.011719 C 303.457031 195.644531 301.539062 193.726562 299.167969 193.726562 " clip-rule="nonzero"/></clipPath><clipPath id="48670a9734"><path d="M 129.207031 109.632812 L 246.203125 109.632812 L 246.203125 244.503906 L 129.207031 244.503906 Z M 129.207031 109.632812 " clip-rule="nonzero"/></clipPath></defs><g clip-path="url(#6a37e39d93)"><path fill="#ffffff" d="M 313.828125 222.433594 C 310.417969 234.039062 305.214844 245.054688 298.753906 255.195312 C 293.421875 263.449219 287.355469 271.207031 280.542969 278.261719 C 279.660156 279.226562 278.675781 280.089844 277.742188 281 C 276.789062 281.894531 275.863281 282.816406 274.894531 283.6875 L 271.9375 286.257812 L 270.460938 287.542969 L 268.929688 288.757812 L 265.871094 291.203125 C 264.835938 291.996094 263.765625 292.746094 262.714844 293.519531 C 260.640625 295.109375 258.433594 296.507812 256.273438 297.976562 C 255.960938 298.1875 255.632812 298.40625 255.292969 298.632812 C 254.9375 298.84375 254.574219 299.066406 254.191406 299.296875 C 253.429688 299.75 252.609375 300.242188 251.734375 300.765625 C 250.007812 301.847656 247.964844 302.871094 245.761719 304.042969 C 245.207031 304.328125 244.648438 304.640625 244.0625 304.921875 C 243.472656 305.195312 242.871094 305.476562 242.257812 305.757812 C 241.03125 306.324219 239.761719 306.914062 238.453125 307.519531 C 235.765625 308.570312 232.964844 309.828125 229.910156 310.808594 C 217.84375 315.183594 202.789062 317.886719 187.679688 317.949219 C 172.574219 317.886719 157.519531 315.183594 145.457031 310.808594 C 142.398438 309.828125 139.597656 308.570312 136.910156 307.519531 C 135.601562 306.914062 134.332031 306.324219 133.105469 305.757812 C 132.492188 305.476562 131.890625 305.195312 131.300781 304.921875 C 130.714844 304.640625 130.160156 304.328125 129.605469 304.042969 C 127.398438 302.871094 125.355469 301.847656 123.628906 300.765625 C 122.753906 300.242188 121.933594 299.75 121.171875 299.296875 C 120.792969 299.066406 120.425781 298.847656 120.074219 298.632812 C 119.730469 298.40625 119.402344 298.1875 119.09375 297.976562 C 110.886719 292.597656 103.175781 286.488281 96.164062 279.625 C 88.773438 272.242188 82.308594 263.96875 76.609375 255.195312 C 70.148438 245.054688 64.945312 234.039062 61.535156 222.433594 C 57.984375 210.863281 56.34375 198.722656 56.238281 186.578125 C 56.34375 174.4375 57.984375 162.296875 61.535156 150.726562 C 64.945312 139.117188 70.148438 128.105469 76.609375 117.964844 C 81.941406 109.710938 88.007812 101.953125 94.820312 94.898438 C 95.703125 93.933594 96.6875 93.070312 97.621094 92.160156 C 98.574219 91.265625 99.5 90.34375 100.46875 89.472656 L 103.425781 86.902344 L 104.902344 85.617188 L 106.433594 84.398438 L 109.492188 81.957031 C 110.527344 81.164062 111.597656 80.414062 112.648438 79.636719 C 114.722656 78.050781 116.929688 76.652344 119.089844 75.183594 C 119.402344 74.972656 119.730469 74.753906 120.070312 74.527344 C 120.421875 74.3125 120.789062 74.09375 121.171875 73.863281 C 121.933594 73.40625 122.753906 72.917969 123.628906 72.394531 C 125.355469 71.3125 127.398438 70.289062 129.601562 69.117188 C 130.15625 68.832031 130.714844 68.519531 131.300781 68.238281 C 131.890625 67.964844 132.492188 67.683594 133.105469 67.402344 C 134.328125 66.835938 135.601562 66.246094 136.910156 65.640625 C 139.597656 64.589844 142.398438 63.332031 145.453125 62.351562 C 157.519531 57.976562 172.574219 55.273438 187.679688 55.210938 C 202.789062 55.273438 217.84375 57.976562 229.90625 62.351562 C 232.964844 63.332031 235.765625 64.589844 238.453125 65.640625 C 239.761719 66.246094 241.03125 66.835938 242.257812 67.402344 C 242.871094 67.683594 243.472656 67.964844 244.0625 68.238281 C 244.648438 68.519531 245.203125 68.832031 245.757812 69.117188 C 247.964844 70.289062 250.007812 71.3125 251.734375 72.394531 C 252.605469 72.917969 253.429688 73.40625 254.191406 73.863281 C 254.570312 74.09375 254.9375 74.3125 255.289062 74.527344 C 255.632812 74.753906 255.960938 74.972656 256.269531 75.183594 C 264.476562 80.5625 272.1875 86.671875 279.199219 93.535156 C 286.589844 100.917969 293.054688 109.191406 298.753906 117.960938 C 305.214844 128.105469 310.417969 139.117188 313.828125 150.726562 C 317.378906 162.296875 319.019531 174.4375 319.125 186.578125 C 319.019531 198.722656 317.378906 210.863281 313.828125 222.433594 Z M 322.148438 186.492188 L 322.144531 186.480469 C 322.035156 174.082031 320.367188 161.675781 316.753906 149.847656 C 313.28125 137.980469 307.960938 126.71875 301.328125 116.375 L 298.136719 111.582031 C 298.136719 111.582031 297.214844 110.292969 295.835938 108.359375 C 294.503906 106.382812 292.464844 103.953125 290.519531 101.453125 C 288.425781 99.078125 286.414062 96.628906 284.726562 94.957031 C 283.082031 93.242188 281.988281 92.101562 281.988281 92.101562 C 281.988281 92.101562 281.710938 91.816406 281.210938 91.335938 C 280.710938 90.855469 280.003906 90.167969 279.148438 89.34375 C 277.480469 87.648438 275.066406 85.601562 272.691406 83.503906 C 271.476562 82.496094 270.222656 81.527344 269.066406 80.59375 C 268.484375 80.132812 267.925781 79.6875 267.390625 79.261719 C 266.839844 78.863281 266.320312 78.488281 265.835938 78.140625 C 263.910156 76.75 262.628906 75.824219 262.628906 75.824219 C 262.628906 75.824219 262.347656 75.597656 261.894531 75.304688 C 261.449219 75.007812 260.851562 74.605469 260.253906 74.207031 C 259.058594 73.40625 257.863281 72.605469 257.863281 72.605469 C 257.546875 72.390625 257.210938 72.167969 256.863281 71.929688 C 256.503906 71.710938 256.128906 71.488281 255.742188 71.25 C 254.960938 70.78125 254.121094 70.277344 253.230469 69.742188 C 251.464844 68.628906 249.375 67.578125 247.121094 66.378906 C 246.550781 66.085938 245.984375 65.765625 245.382812 65.476562 C 244.78125 65.195312 244.164062 64.90625 243.539062 64.617188 C 242.285156 64.035156 240.984375 63.433594 239.644531 62.8125 C 236.894531 61.730469 234.027344 60.445312 230.902344 59.4375 C 218.554688 54.953125 203.140625 52.175781 187.679688 52.113281 C 172.222656 52.175781 156.808594 54.953125 144.460938 59.4375 C 141.335938 60.445312 138.464844 61.734375 135.71875 62.8125 C 134.378906 63.433594 133.078125 64.035156 131.824219 64.617188 C 131.195312 64.910156 130.582031 65.195312 129.976562 65.476562 C 129.378906 65.765625 128.808594 66.085938 128.242188 66.378906 C 125.988281 67.578125 123.898438 68.628906 122.132812 69.742188 C 121.242188 70.277344 120.402344 70.78125 119.621094 71.25 C 119.234375 71.488281 118.859375 71.714844 118.5 71.929688 C 118.148438 72.167969 117.816406 72.390625 117.496094 72.605469 C 117.496094 72.605469 116.304688 73.40625 115.109375 74.207031 C 114.511719 74.605469 113.914062 75.007812 113.464844 75.304688 C 113.015625 75.597656 112.734375 75.824219 112.734375 75.824219 C 112.734375 75.824219 111.449219 76.75 109.527344 78.140625 C 109.042969 78.488281 108.523438 78.863281 107.972656 79.261719 C 107.4375 79.6875 106.875 80.132812 106.296875 80.59375 C 105.140625 81.527344 103.886719 82.496094 102.671875 83.503906 C 100.296875 85.601562 97.878906 87.648438 96.214844 89.34375 C 95.359375 90.167969 94.648438 90.855469 94.152344 91.335938 C 93.652344 91.816406 93.375 92.101562 93.375 92.101562 C 93.375 92.101562 92.28125 93.242188 90.636719 94.957031 C 88.949219 96.628906 86.9375 99.078125 84.84375 101.453125 C 82.898438 103.953125 80.859375 106.386719 79.527344 108.359375 C 78.144531 110.292969 77.222656 111.582031 77.222656 111.582031 L 74.035156 116.375 C 67.402344 126.71875 62.082031 137.980469 58.609375 149.847656 C 54.996094 161.675781 53.328125 174.082031 53.21875 186.480469 L 53.214844 186.492188 L 53.214844 186.667969 L 53.21875 186.679688 C 53.328125 199.078125 54.996094 211.484375 58.609375 223.3125 C 62.082031 235.179688 67.402344 246.441406 74.035156 256.785156 L 77.226562 261.578125 C 77.226562 261.578125 78.148438 262.867188 79.527344 264.800781 C 80.859375 266.773438 82.898438 269.207031 84.84375 271.707031 C 86.9375 274.082031 88.949219 276.53125 90.636719 278.203125 C 92.28125 279.917969 93.375 281.058594 93.375 281.058594 C 93.375 281.058594 93.652344 281.34375 94.152344 281.820312 C 94.648438 282.304688 95.359375 282.992188 96.214844 283.816406 C 97.878906 285.511719 100.296875 287.558594 102.671875 289.652344 C 103.886719 290.664062 105.140625 291.632812 106.296875 292.566406 C 106.875 293.027344 107.4375 293.472656 107.972656 293.898438 C 108.523438 294.296875 109.042969 294.671875 109.527344 295.019531 C 111.449219 296.410156 112.734375 297.335938 112.734375 297.335938 C 112.734375 297.335938 113.015625 297.5625 113.464844 297.851562 C 113.914062 298.152344 114.511719 298.550781 115.109375 298.953125 C 116.304688 299.753906 117.5 300.550781 117.5 300.550781 C 117.816406 300.765625 118.152344 300.992188 118.5 301.226562 C 118.859375 301.445312 119.234375 301.671875 119.621094 301.90625 C 120.402344 302.378906 121.242188 302.878906 122.132812 303.417969 C 123.898438 304.53125 125.988281 305.578125 128.242188 306.78125 C 128.808594 307.074219 129.378906 307.394531 129.980469 307.683594 C 130.582031 307.964844 131.199219 308.253906 131.824219 308.542969 C 133.078125 309.125 134.378906 309.726562 135.71875 310.347656 C 138.46875 311.429688 141.335938 312.714844 144.460938 313.722656 C 156.808594 318.207031 172.222656 320.984375 187.679688 321.046875 C 203.140625 320.984375 218.554688 318.207031 230.902344 313.722656 C 234.027344 312.714844 236.894531 311.425781 239.644531 310.347656 C 240.984375 309.726562 242.285156 309.125 243.539062 308.542969 C 244.164062 308.25 244.78125 307.964844 245.382812 307.683594 C 245.984375 307.394531 246.554688 307.074219 247.121094 306.78125 C 249.375 305.578125 251.464844 304.53125 253.230469 303.417969 C 254.121094 302.878906 254.960938 302.375 255.742188 301.90625 C 256.128906 301.671875 256.503906 301.445312 256.863281 301.226562 C 257.214844 300.992188 257.546875 300.765625 257.867188 300.550781 C 257.867188 300.550781 259.058594 299.753906 260.253906 298.953125 C 260.851562 298.550781 261.449219 298.152344 261.894531 297.851562 C 262.347656 297.5625 262.628906 297.335938 262.628906 297.335938 C 262.628906 297.335938 263.910156 296.410156 265.835938 295.019531 C 266.320312 294.671875 266.839844 294.296875 267.390625 293.898438 C 267.925781 293.472656 268.484375 293.027344 269.066406 292.566406 C 270.222656 291.632812 271.476562 290.664062 272.691406 289.652344 C 275.066406 287.558594 277.480469 285.511719 279.148438 283.816406 C 280.003906 282.992188 280.710938 282.304688 281.210938 281.820312 C 281.710938 281.34375 281.988281 281.058594 281.988281 281.058594 C 281.988281 281.058594 283.082031 279.917969 284.726562 278.203125 C 286.414062 276.53125 288.425781 274.082031 290.519531 271.707031 C 292.464844 269.207031 294.503906 266.773438 295.835938 264.800781 C 297.21875 262.867188 298.136719 261.578125 298.136719 261.578125 L 301.328125 256.785156 C 307.960938 246.441406 313.28125 235.179688 316.753906 223.3125 C 320.367188 211.484375 322.035156 199.078125 322.144531 186.679688 L 322.148438 186.667969 L 322.148438 186.492188 " fill-opacity="1" fill-rule="nonzero"/></g><g clip-path="url(#34b81ee811)"><path fill="#ffffff" d="M 274.574219 211 C 272.214844 219.03125 268.613281 226.652344 264.144531 233.667969 C 260.453125 239.378906 256.257812 244.746094 251.542969 249.628906 C 250.933594 250.292969 250.253906 250.890625 249.605469 251.519531 C 248.945312 252.136719 248.308594 252.777344 247.636719 253.378906 L 245.589844 255.15625 L 244.570312 256.046875 L 243.507812 256.890625 L 241.394531 258.582031 C 240.675781 259.128906 239.9375 259.648438 239.210938 260.183594 C 237.773438 261.28125 236.246094 262.25 234.753906 263.265625 C 234.535156 263.410156 234.308594 263.5625 234.074219 263.722656 C 233.832031 263.867188 233.578125 264.019531 233.3125 264.179688 C 232.785156 264.492188 232.21875 264.832031 231.613281 265.195312 C 230.417969 265.945312 229.003906 266.652344 227.480469 267.460938 C 227.097656 267.660156 226.710938 267.875 226.304688 268.070312 C 225.898438 268.261719 225.480469 268.453125 225.058594 268.648438 C 224.210938 269.042969 223.332031 269.449219 222.425781 269.867188 C 220.566406 270.59375 218.625 271.464844 216.511719 272.144531 C 208.167969 275.167969 197.75 277.039062 187.296875 277.082031 C 176.847656 277.039062 166.429688 275.167969 158.085938 272.144531 C 155.96875 271.464844 154.03125 270.59375 152.171875 269.867188 C 151.265625 269.449219 150.386719 269.042969 149.539062 268.648438 C 149.117188 268.453125 148.699219 268.261719 148.292969 268.070312 C 147.886719 267.878906 147.503906 267.660156 147.117188 267.460938 C 145.59375 266.652344 144.179688 265.945312 142.984375 265.195312 C 142.378906 264.832031 141.8125 264.492188 141.285156 264.179688 C 141.023438 264.019531 140.769531 263.867188 140.523438 263.722656 C 140.289062 263.5625 140.0625 263.410156 139.847656 263.265625 C 134.167969 259.542969 128.832031 255.316406 123.984375 250.570312 C 118.867188 245.460938 114.398438 239.738281 110.457031 233.667969 C 105.984375 226.652344 102.382812 219.03125 100.023438 211 C 97.570312 202.996094 96.433594 194.597656 96.359375 186.195312 C 96.433594 177.796875 97.570312 169.394531 100.023438 161.390625 C 102.382812 153.359375 105.984375 145.742188 110.453125 138.726562 C 114.144531 133.015625 118.339844 127.648438 123.054688 122.765625 C 123.664062 122.101562 124.34375 121.503906 124.992188 120.875 C 125.648438 120.253906 126.289062 119.617188 126.960938 119.015625 L 129.003906 117.234375 L 130.027344 116.347656 L 131.085938 115.503906 L 133.203125 113.8125 C 133.921875 113.265625 134.660156 112.746094 135.386719 112.210938 C 136.824219 111.113281 138.347656 110.144531 139.84375 109.128906 C 140.058594 108.984375 140.285156 108.832031 140.523438 108.671875 C 140.765625 108.527344 141.019531 108.375 141.285156 108.214844 C 141.8125 107.898438 142.378906 107.558594 142.984375 107.199219 C 144.179688 106.449219 145.589844 105.742188 147.117188 104.929688 C 147.5 104.734375 147.886719 104.515625 148.292969 104.324219 C 148.699219 104.132812 149.117188 103.941406 149.539062 103.742188 C 150.386719 103.351562 151.265625 102.945312 152.171875 102.527344 C 154.03125 101.800781 155.96875 100.929688 158.085938 100.25 C 166.429688 97.222656 176.84375 95.355469 187.296875 95.308594 C 197.75 95.355469 208.167969 97.222656 216.511719 100.25 C 218.625 100.929688 220.5625 101.800781 222.425781 102.527344 C 223.332031 102.945312 224.207031 103.351562 225.058594 103.742188 C 225.480469 103.941406 225.898438 104.132812 226.304688 104.324219 C 226.710938 104.515625 227.09375 104.734375 227.480469 104.929688 C 229.003906 105.742188 230.417969 106.449219 231.613281 107.199219 C 232.21875 107.558594 232.785156 107.898438 233.3125 108.214844 C 233.574219 108.375 233.828125 108.527344 234.074219 108.671875 C 234.308594 108.832031 234.535156 108.984375 234.75 109.128906 C 240.429688 112.847656 245.765625 117.078125 250.613281 121.824219 C 255.726562 126.933594 260.199219 132.65625 264.140625 138.722656 C 268.613281 145.742188 272.214844 153.359375 274.574219 161.390625 C 277.027344 169.394531 278.164062 177.796875 278.238281 186.195312 C 278.164062 194.597656 277.027344 202.996094 274.574219 211 Z M 280.328125 186.136719 L 280.324219 186.128906 C 280.25 177.550781 279.097656 168.964844 276.597656 160.78125 C 274.191406 152.574219 270.511719 144.78125 265.921875 137.625 L 263.71875 134.308594 C 263.71875 134.308594 263.078125 133.417969 262.125 132.078125 C 261.203125 130.714844 259.792969 129.03125 258.449219 127.300781 C 256.996094 125.660156 255.605469 123.964844 254.4375 122.808594 C 253.300781 121.621094 252.542969 120.832031 252.542969 120.832031 C 252.542969 120.832031 252.351562 120.636719 252.007812 120.304688 C 251.660156 119.972656 251.171875 119.496094 250.578125 118.925781 C 249.425781 117.75 247.753906 116.335938 246.113281 114.886719 C 245.269531 114.1875 244.40625 113.515625 243.605469 112.871094 C 243.203125 112.550781 242.816406 112.242188 242.445312 111.949219 C 242.066406 111.675781 241.703125 111.414062 241.371094 111.175781 C 240.039062 110.210938 239.148438 109.574219 239.148438 109.574219 C 239.148438 109.574219 238.957031 109.414062 238.644531 109.210938 C 238.332031 109.003906 237.921875 108.730469 237.507812 108.453125 C 236.679688 107.898438 235.855469 107.347656 235.855469 107.347656 C 235.632812 107.195312 235.402344 107.039062 235.160156 106.878906 C 234.914062 106.726562 234.652344 106.570312 234.382812 106.40625 C 233.84375 106.082031 233.265625 105.734375 232.648438 105.363281 C 231.425781 104.59375 229.980469 103.867188 228.421875 103.035156 C 228.027344 102.832031 227.632812 102.613281 227.21875 102.414062 C 226.800781 102.21875 226.375 102.019531 225.945312 101.816406 C 225.074219 101.414062 224.175781 101 223.25 100.570312 C 221.347656 99.820312 219.363281 98.929688 217.199219 98.234375 C 208.660156 95.132812 197.992188 93.210938 187.296875 93.167969 C 176.605469 93.210938 165.9375 95.132812 157.398438 98.234375 C 155.234375 98.929688 153.25 99.820312 151.347656 100.570312 C 150.421875 101 149.523438 101.414062 148.652344 101.816406 C 148.21875 102.019531 147.792969 102.21875 147.378906 102.414062 C 146.960938 102.613281 146.566406 102.832031 146.175781 103.035156 C 144.617188 103.867188 143.171875 104.59375 141.949219 105.363281 C 141.332031 105.734375 140.753906 106.082031 140.210938 106.40625 C 139.941406 106.570312 139.683594 106.726562 139.433594 106.878906 C 139.195312 107.042969 138.960938 107.195312 138.742188 107.347656 C 138.742188 107.347656 137.914062 107.898438 137.089844 108.453125 C 136.675781 108.730469 136.261719 109.003906 135.953125 109.214844 C 135.640625 109.414062 135.449219 109.574219 135.449219 109.574219 C 135.449219 109.574219 134.558594 110.210938 133.226562 111.175781 C 132.894531 111.414062 132.53125 111.675781 132.152344 111.949219 C 131.78125 112.242188 131.394531 112.550781 130.992188 112.871094 C 130.191406 113.515625 129.324219 114.1875 128.484375 114.886719 C 126.84375 116.335938 125.171875 117.75 124.019531 118.925781 C 123.425781 119.496094 122.933594 119.972656 122.589844 120.304688 C 122.246094 120.636719 122.054688 120.832031 122.054688 120.832031 C 122.054688 120.832031 121.296875 121.621094 120.160156 122.808594 C 118.992188 123.964844 117.601562 125.660156 116.148438 127.300781 C 114.804688 129.03125 113.394531 130.714844 112.472656 132.078125 C 111.515625 133.417969 110.878906 134.308594 110.878906 134.308594 L 108.675781 137.625 C 104.085938 144.78125 100.402344 152.574219 98 160.78125 C 95.5 168.96875 94.347656 177.550781 94.273438 186.128906 L 94.269531 186.136719 L 94.269531 186.257812 L 94.273438 186.265625 C 94.347656 194.84375 95.5 203.425781 98 211.609375 C 100.402344 219.820312 104.085938 227.613281 108.675781 234.769531 L 110.878906 238.082031 C 110.878906 238.082031 111.519531 238.976562 112.472656 240.3125 C 113.394531 241.679688 114.804688 243.359375 116.148438 245.089844 C 117.601562 246.734375 118.992188 248.429688 120.160156 249.585938 C 121.296875 250.769531 122.054688 251.5625 122.054688 251.5625 C 122.054688 251.5625 122.246094 251.757812 122.589844 252.089844 C 122.933594 252.421875 123.425781 252.898438 124.019531 253.46875 C 125.171875 254.644531 126.84375 256.058594 128.484375 257.507812 C 129.324219 258.207031 130.191406 258.878906 130.992188 259.523438 C 131.394531 259.839844 131.78125 260.148438 132.152344 260.445312 C 132.53125 260.71875 132.894531 260.980469 133.226562 261.21875 C 134.558594 262.179688 135.449219 262.820312 135.449219 262.820312 C 135.449219 262.820312 135.640625 262.980469 135.953125 263.179688 C 136.265625 263.386719 136.675781 263.664062 137.089844 263.941406 C 137.914062 264.496094 138.742188 265.046875 138.742188 265.046875 C 138.964844 265.195312 139.195312 265.351562 139.433594 265.515625 C 139.683594 265.667969 139.941406 265.824219 140.210938 265.984375 C 140.753906 266.3125 141.332031 266.660156 141.949219 267.03125 C 143.171875 267.800781 144.617188 268.527344 146.175781 269.355469 C 146.570312 269.5625 146.964844 269.78125 147.378906 269.980469 C 147.796875 270.175781 148.222656 270.375 148.652344 270.578125 C 149.523438 270.980469 150.421875 271.394531 151.347656 271.824219 C 153.25 272.574219 155.234375 273.464844 157.398438 274.160156 C 165.9375 277.261719 176.605469 279.183594 187.296875 279.226562 C 197.992188 279.183594 208.660156 277.261719 217.199219 274.160156 C 219.363281 273.464844 221.347656 272.570312 223.25 271.824219 C 224.175781 271.394531 225.074219 270.980469 225.945312 270.574219 C 226.378906 270.375 226.804688 270.175781 227.21875 269.980469 C 227.632812 269.78125 228.027344 269.5625 228.421875 269.355469 C 229.980469 268.527344 231.425781 267.800781 232.648438 267.03125 C 233.265625 266.660156 233.84375 266.308594 234.386719 265.984375 C 234.652344 265.824219 234.914062 265.667969 235.160156 265.515625 C 235.402344 265.351562 235.632812 265.195312 235.855469 265.046875 C 235.855469 265.046875 236.679688 264.496094 237.507812 263.941406 C 237.921875 263.664062 238.335938 263.386719 238.644531 263.179688 C 238.957031 262.980469 239.148438 262.820312 239.148438 262.820312 C 239.148438 262.820312 240.039062 262.179688 241.371094 261.21875 C 241.703125 260.980469 242.066406 260.71875 242.445312 260.445312 C 242.816406 260.148438 243.203125 259.839844 243.605469 259.523438 C 244.40625 258.878906 245.269531 258.207031 246.113281 257.507812 C 247.753906 256.058594 249.425781 254.644531 250.578125 253.46875 C 251.171875 252.898438 251.660156 252.421875 252.007812 252.089844 C 252.351562 251.757812 252.542969 251.5625 252.542969 251.5625 C 252.542969 251.5625 253.300781 250.769531 254.4375 249.585938 C 255.605469 248.429688 256.996094 246.734375 258.449219 245.089844 C 259.792969 243.359375 261.203125 241.679688 262.125 240.3125 C 263.078125 238.976562 263.71875 238.082031 263.71875 238.082031 L 265.921875 234.769531 C 270.511719 227.613281 274.191406 219.820312 276.597656 211.609375 C 279.097656 203.425781 280.25 194.84375 280.324219 186.265625 L 280.328125 186.257812 L 280.328125 186.136719 " fill-opacity="1" fill-rule="nonzero"/></g><g clip-path="url(#2d6a324f17)"><g clip-path="url(#a492db4879)"><path fill="#ffffff" d="M 71.789062 193.726562 L 80.367188 193.726562 L 80.367188 202.300781 L 71.789062 202.300781 Z M 71.789062 193.726562 " fill-opacity="1" fill-rule="nonzero"/></g></g><g clip-path="url(#674cff9f14)"><g clip-path="url(#aefe18e24a)"><path fill="#ffffff" d="M 294.882812 193.726562 L 303.457031 193.726562 L 303.457031 202.300781 L 294.882812 202.300781 Z M 294.882812 193.726562 " fill-opacity="1" fill-rule="nonzero"/></g></g><g clip-path="url(#48670a9734)"><path fill="#ffffff" d="M 140.433594 242.75 C 140.496094 243 140.597656 243.230469 140.738281 243.445312 C 140.878906 243.65625 141.050781 243.84375 141.253906 243.996094 C 141.460938 244.152344 141.683594 244.269531 141.929688 244.347656 C 142.171875 244.425781 142.421875 244.460938 142.679688 244.453125 L 232.503906 244.453125 C 232.761719 244.460938 233.011719 244.425781 233.257812 244.347656 C 233.5 244.269531 233.726562 244.152344 233.929688 243.996094 C 234.132812 243.84375 234.304688 243.65625 234.445312 243.445312 C 234.585938 243.230469 234.6875 243 234.75 242.75 L 245.980469 197.898438 C 246.160156 197.191406 246.023438 196.546875 245.574219 195.972656 C 245.105469 195.378906 244.492188 195.09375 243.734375 195.121094 L 241.242188 195.121094 C 241.148438 194.5 241.003906 193.898438 240.800781 193.304688 C 240.601562 192.714844 240.351562 192.144531 240.050781 191.597656 C 239.75 191.050781 239.402344 190.535156 239.007812 190.046875 C 238.613281 189.5625 238.179688 189.117188 237.707031 188.707031 C 237.234375 188.300781 236.730469 187.9375 236.191406 187.617188 C 235.652344 187.300781 235.089844 187.03125 234.503906 186.8125 C 233.917969 186.59375 233.320312 186.429688 232.703125 186.320312 C 232.089844 186.207031 231.46875 186.152344 230.84375 186.148438 L 201.066406 186.148438 L 201.066406 182.539062 C 202.628906 181.644531 204.089844 180.601562 205.441406 179.414062 C 206.796875 178.222656 208.019531 176.914062 209.105469 175.476562 C 210.195312 174.042969 211.128906 172.511719 211.90625 170.886719 C 212.683594 169.265625 213.292969 167.578125 213.730469 165.832031 C 214.230469 165.746094 214.71875 165.617188 215.195312 165.445312 C 215.675781 165.277344 216.132812 165.066406 216.578125 164.820312 C 217.019531 164.574219 217.4375 164.289062 217.832031 163.972656 C 218.226562 163.652344 218.589844 163.304688 218.925781 162.925781 C 219.261719 162.542969 219.5625 162.136719 219.828125 161.707031 C 220.09375 161.277344 220.320312 160.828125 220.511719 160.355469 C 220.703125 159.886719 220.851562 159.40625 220.957031 158.910156 C 221.066406 158.417969 221.132812 157.917969 221.15625 157.410156 C 221.179688 156.90625 221.160156 156.402344 221.097656 155.898438 C 221.035156 155.394531 220.933594 154.902344 220.785156 154.417969 C 220.640625 153.933594 220.453125 153.464844 220.230469 153.007812 C 220.003906 152.554688 219.742188 152.125 219.441406 151.714844 C 219.144531 151.304688 218.8125 150.925781 218.449219 150.570312 C 218.085938 150.21875 217.695312 149.898438 217.28125 149.609375 C 216.863281 149.324219 216.421875 149.074219 215.964844 148.859375 C 215.503906 148.648438 215.027344 148.472656 214.539062 148.339844 L 214.539062 145.402344 C 215.195312 145.171875 215.804688 144.847656 216.359375 144.425781 C 216.914062 144.007812 217.394531 143.511719 217.796875 142.945312 C 218.199219 142.375 218.503906 141.757812 218.714844 141.097656 C 218.925781 140.433594 219.03125 139.753906 219.03125 139.058594 C 219.039062 138.40625 219.015625 137.757812 218.960938 137.105469 C 218.90625 136.457031 218.820312 135.8125 218.703125 135.171875 C 218.582031 134.53125 218.433594 133.898438 218.253906 133.273438 C 218.074219 132.648438 217.863281 132.03125 217.621094 131.425781 C 217.378906 130.820312 217.109375 130.230469 216.808594 129.652344 C 216.511719 129.070312 216.183594 128.507812 215.828125 127.960938 C 215.476562 127.414062 215.09375 126.886719 214.6875 126.378906 C 214.28125 125.867188 213.851562 125.378906 213.398438 124.914062 C 212.941406 124.445312 212.464844 124 211.96875 123.582031 C 211.46875 123.160156 210.953125 122.765625 210.417969 122.394531 C 209.878906 122.027344 209.324219 121.683594 208.753906 121.367188 C 208.183594 121.050781 207.601562 120.765625 207 120.507812 C 206.402344 120.246094 205.792969 120.019531 205.171875 119.820312 C 204.550781 119.621094 203.921875 119.453125 203.28125 119.316406 C 202.644531 119.179688 202.003906 119.074219 201.355469 119 C 200.707031 118.925781 200.054688 118.886719 199.402344 118.875 L 178.789062 118.875 C 176.566406 118.855469 174.410156 118.457031 172.324219 117.6875 C 170.238281 116.917969 168.34375 115.820312 166.640625 114.390625 L 161.722656 110.421875 C 161.40625 110.167969 161.046875 110.007812 160.644531 109.949219 C 160.242188 109.886719 159.855469 109.933594 159.476562 110.085938 C 159.09375 110.238281 158.777344 110.480469 158.527344 110.8125 C 158.277344 111.140625 158.128906 111.511719 158.085938 111.921875 L 156.398438 129.347656 C 156.0625 132.851562 156.105469 136.347656 156.535156 139.84375 C 156.605469 140.429688 156.75 140.996094 156.972656 141.542969 C 157.191406 142.089844 157.480469 142.601562 157.832031 143.074219 C 158.1875 143.546875 158.597656 143.964844 159.0625 144.328125 C 159.527344 144.695312 160.03125 144.992188 160.578125 145.222656 L 160.578125 148.339844 C 160.085938 148.476562 159.613281 148.648438 159.152344 148.863281 C 158.695312 149.074219 158.253906 149.324219 157.835938 149.613281 C 157.421875 149.902344 157.03125 150.222656 156.667969 150.578125 C 156.304688 150.929688 155.972656 151.3125 155.675781 151.722656 C 155.378906 152.132812 155.117188 152.5625 154.890625 153.015625 C 154.667969 153.46875 154.480469 153.941406 154.335938 154.425781 C 154.191406 154.910156 154.085938 155.402344 154.027344 155.90625 C 153.964844 156.410156 153.945312 156.914062 153.96875 157.417969 C 153.992188 157.925781 154.058594 158.425781 154.167969 158.921875 C 154.277344 159.414062 154.429688 159.898438 154.617188 160.367188 C 154.808594 160.835938 155.039062 161.285156 155.304688 161.714844 C 155.570312 162.144531 155.871094 162.550781 156.207031 162.929688 C 156.542969 163.3125 156.910156 163.660156 157.304688 163.976562 C 157.699219 164.296875 158.117188 164.578125 158.558594 164.824219 C 159.003906 165.070312 159.464844 165.28125 159.941406 165.449219 C 160.417969 165.617188 160.90625 165.746094 161.40625 165.832031 C 161.851562 167.578125 162.46875 169.265625 163.25 170.886719 C 164.035156 172.511719 164.972656 174.039062 166.066406 175.472656 C 167.15625 176.910156 168.378906 178.222656 169.738281 179.410156 C 171.09375 180.601562 172.550781 181.644531 174.117188 182.539062 L 174.117188 186.148438 L 144.160156 186.148438 C 143.53125 186.148438 142.910156 186.199219 142.292969 186.308594 C 141.671875 186.417969 141.066406 186.578125 140.480469 186.796875 C 139.890625 187.011719 139.324219 187.28125 138.78125 187.597656 C 138.238281 187.914062 137.730469 188.277344 137.253906 188.6875 C 136.777344 189.09375 136.339844 189.542969 135.945312 190.027344 C 135.546875 190.515625 135.199219 191.035156 134.894531 191.582031 C 134.589844 192.132812 134.339844 192.703125 134.136719 193.296875 C 133.9375 193.890625 133.789062 194.5 133.695312 195.121094 L 131.449219 195.121094 C 130.722656 195.117188 130.128906 195.398438 129.675781 195.972656 C 129.226562 196.546875 129.09375 197.191406 129.273438 197.898438 Z M 175.242188 229.09375 L 172.859375 232.90625 L 154.894531 221.691406 C 154.578125 221.480469 154.332031 221.203125 154.160156 220.867188 C 153.984375 220.527344 153.898438 220.167969 153.90625 219.785156 C 153.90625 219.398438 154 219.035156 154.1875 218.695312 C 154.375 218.359375 154.632812 218.085938 154.960938 217.878906 L 172.929688 206.667969 L 175.308594 210.480469 L 160.398438 219.785156 Z M 182.785156 234.25 L 178.789062 232.230469 L 192.261719 205.324219 L 196.261719 207.339844 Z M 220.152344 221.691406 L 202.1875 232.90625 L 199.808594 229.09375 L 214.785156 219.785156 L 199.875 210.480469 L 202.257812 206.667969 L 220.222656 217.878906 C 220.550781 218.085938 220.808594 218.359375 220.996094 218.695312 C 221.183594 219.035156 221.277344 219.398438 221.277344 219.785156 C 221.277344 220.175781 221.183594 220.539062 220.996094 220.875 C 220.808594 221.214844 220.550781 221.488281 220.222656 221.691406 Z M 208.878906 190.632812 L 230.84375 190.632812 C 231.507812 190.636719 232.15625 190.746094 232.785156 190.960938 C 233.417969 191.175781 233.996094 191.484375 234.523438 191.890625 C 235.050781 192.296875 235.5 192.773438 235.867188 193.328125 C 236.238281 193.878906 236.507812 194.476562 236.683594 195.121094 L 206.90625 195.121094 C 207.722656 193.695312 208.382812 192.199219 208.878906 190.632812 Z M 165.136719 145.449219 L 170.570312 144.351562 C 173.023438 143.832031 175.484375 143.78125 177.957031 144.191406 L 184.359375 145.269531 C 186.605469 145.640625 188.847656 145.640625 191.09375 145.269531 L 197.5625 144.191406 C 199.996094 143.785156 202.421875 143.824219 204.839844 144.304688 L 210.136719 145.359375 L 210.136719 148.65625 L 205.199219 150.269531 L 192.082031 150.269531 C 191.785156 150.269531 191.5 150.328125 191.222656 150.441406 C 190.949219 150.554688 190.707031 150.714844 190.496094 150.925781 C 190.285156 151.136719 190.121094 151.378906 190.007812 151.652344 C 189.894531 151.929688 189.835938 152.214844 189.835938 152.511719 L 189.835938 154.753906 L 185.347656 154.753906 L 185.347656 152.511719 C 185.347656 152.214844 185.289062 151.929688 185.175781 151.652344 C 185.0625 151.378906 184.898438 151.136719 184.6875 150.925781 C 184.476562 150.714844 184.234375 150.554688 183.960938 150.441406 C 183.683594 150.328125 183.398438 150.269531 183.101562 150.269531 L 169.984375 150.269531 L 165.136719 148.65625 Z M 165.136719 159.238281 L 165.136719 153.363281 L 167.382812 154.125 L 167.382812 161.480469 C 167.382812 161.78125 167.4375 162.066406 167.550781 162.339844 C 167.667969 162.613281 167.828125 162.859375 168.039062 163.066406 C 168.25 163.277344 168.492188 163.441406 168.765625 163.554688 C 169.042969 163.667969 169.328125 163.726562 169.625 163.726562 L 183.101562 163.726562 C 183.398438 163.726562 183.683594 163.667969 183.960938 163.554688 C 184.234375 163.441406 184.476562 163.277344 184.6875 163.066406 C 184.898438 162.859375 185.0625 162.613281 185.175781 162.339844 C 185.289062 162.066406 185.347656 161.78125 185.347656 161.480469 L 185.347656 159.238281 L 189.835938 159.238281 L 189.835938 161.480469 C 189.835938 161.78125 189.894531 162.066406 190.007812 162.339844 C 190.121094 162.613281 190.285156 162.859375 190.496094 163.066406 C 190.707031 163.277344 190.949219 163.441406 191.222656 163.554688 C 191.5 163.667969 191.785156 163.726562 192.082031 163.726562 L 205.558594 163.726562 C 205.855469 163.726562 206.140625 163.667969 206.417969 163.554688 C 206.691406 163.441406 206.933594 163.277344 207.144531 163.066406 C 207.355469 162.859375 207.519531 162.613281 207.632812 162.339844 C 207.746094 162.066406 207.804688 161.78125 207.804688 161.480469 L 207.804688 154.125 L 210.046875 153.386719 L 210.046875 159.238281 C 210.050781 160.265625 209.984375 161.285156 209.847656 162.300781 C 209.710938 163.320312 209.503906 164.320312 209.230469 165.308594 C 208.953125 166.296875 208.609375 167.261719 208.203125 168.203125 C 207.792969 169.140625 207.320312 170.050781 206.785156 170.925781 C 206.25 171.800781 205.660156 172.636719 205.007812 173.429688 C 204.359375 174.226562 203.65625 174.96875 202.902344 175.667969 C 202.152344 176.363281 201.355469 177.007812 200.511719 177.59375 C 199.671875 178.183594 198.792969 178.710938 197.878906 179.175781 C 197.453125 179.394531 197.019531 179.601562 196.582031 179.792969 C 196.140625 179.984375 195.695312 180.160156 195.246094 180.324219 C 194.796875 180.484375 194.339844 180.632812 193.882812 180.769531 C 193.421875 180.902344 192.957031 181.019531 192.492188 181.125 C 192.023438 181.230469 191.554688 181.320312 191.082031 181.394531 C 190.605469 181.46875 190.132812 181.527344 189.65625 181.570312 C 189.179688 181.613281 188.699219 181.644531 188.222656 181.65625 C 187.742188 181.671875 187.265625 181.667969 186.785156 181.652344 C 186.308594 181.632812 185.828125 181.601562 185.351562 181.554688 C 184.875 181.507812 184.402344 181.445312 183.929688 181.367188 C 183.457031 181.289062 182.988281 181.195312 182.519531 181.085938 C 182.054688 180.976562 181.59375 180.855469 181.132812 180.71875 C 180.675781 180.582031 180.222656 180.429688 179.773438 180.261719 C 179.324219 180.09375 178.878906 179.914062 178.441406 179.71875 C 178.003906 179.523438 177.574219 179.316406 177.152344 179.09375 C 176.726562 178.871094 176.308594 178.636719 175.902344 178.386719 C 175.492188 178.136719 175.09375 177.875 174.699219 177.601562 C 174.308594 177.328125 173.925781 177.039062 173.550781 176.742188 C 173.175781 176.441406 172.8125 176.132812 172.460938 175.808594 C 172.105469 175.488281 171.761719 175.152344 171.429688 174.808594 C 171.097656 174.464844 170.777344 174.113281 170.464844 173.746094 C 170.15625 173.382812 169.859375 173.007812 169.574219 172.625 C 169.289062 172.242188 169.015625 171.847656 168.753906 171.445312 C 168.492188 171.046875 168.246094 170.636719 168.011719 170.21875 C 167.777344 169.800781 167.554688 169.378906 167.347656 168.945312 C 167.140625 168.515625 166.949219 168.078125 166.769531 167.636719 C 166.589844 167.191406 166.425781 166.742188 166.273438 166.289062 C 166.125 165.835938 165.988281 165.375 165.867188 164.914062 C 165.746094 164.453125 165.640625 163.984375 165.546875 163.515625 C 165.457031 163.046875 165.378906 162.574219 165.320312 162.101562 C 165.257812 161.625 165.210938 161.148438 165.179688 160.671875 C 165.152344 160.195312 165.136719 159.71875 165.136719 159.238281 Z M 176.363281 190.632812 C 176.660156 190.632812 176.949219 190.578125 177.222656 190.464844 C 177.5 190.351562 177.742188 190.1875 177.953125 189.976562 C 178.164062 189.765625 178.324219 189.523438 178.4375 189.25 C 178.550781 188.976562 178.609375 188.6875 178.609375 188.390625 L 178.609375 184.601562 C 181.515625 185.625 184.511719 186.140625 187.59375 186.148438 C 190.675781 186.148438 193.671875 185.625 196.574219 184.578125 L 196.574219 188.390625 C 196.574219 188.6875 196.632812 188.976562 196.746094 189.25 C 196.859375 189.523438 197.023438 189.765625 197.230469 189.976562 C 197.441406 190.1875 197.6875 190.351562 197.960938 190.464844 C 198.234375 190.578125 198.523438 190.632812 198.820312 190.632812 L 204.210938 190.632812 C 203.546875 192.253906 202.671875 193.75 201.582031 195.121094 L 173.511719 195.121094 C 172.421875 193.75 171.546875 192.253906 170.882812 190.632812 Z M 144.25 190.632812 L 166.214844 190.632812 C 166.710938 192.199219 167.371094 193.695312 168.191406 195.121094 L 138.324219 195.121094 C 138.496094 194.476562 138.765625 193.878906 139.136719 193.328125 C 139.503906 192.773438 139.953125 192.296875 140.480469 191.890625 C 141.007812 191.484375 141.589844 191.175781 142.21875 190.960938 C 142.847656 190.746094 143.496094 190.636719 144.160156 190.632812 Z M 144.25 190.632812 " fill-opacity="1" fill-rule="nonzero"/></g><g fill="#ffffff" fill-opacity="1"><g transform="translate(89.407416, 149.59013)"><g><path d="M -2.101562 -9.972656 C -1.238281 -12.304688 -2.257812 -14.4375 -4.308594 -15.433594 C -7.125 -16.796875 -9.242188 -15.816406 -10.878906 -12.433594 L -12.980469 -8.089844 L 0.710938 -1.464844 L 2.015625 -4.164062 L -2.03125 -6.125 L -3.675781 -6.917969 L -3.664062 -6.9375 C -3.054688 -7.003906 -2.414062 -7.128906 -1.8125 -7.226562 L 4.011719 -8.292969 L 5.546875 -11.460938 Z M -5.199219 -7.65625 L -9.484375 -9.730469 L -8.8125 -11.117188 C -7.980469 -12.839844 -6.953125 -13.308594 -5.527344 -12.617188 C -4.039062 -11.898438 -3.707031 -10.746094 -4.527344 -9.046875 Z M -5.199219 -7.65625 "/></g></g></g><g fill="#ffffff" fill-opacity="1"><g transform="translate(97.033555, 134.589022)"><g><path d="M 0.527344 -5.253906 L -2.875 -7.589844 L 0.140625 -11.976562 L -1.867188 -13.355469 L -4.882812 -8.96875 L -7.835938 -11 L -4.550781 -15.78125 L -6.628906 -17.207031 L -11.609375 -9.957031 L 0.921875 -1.34375 L 6.015625 -8.753906 L 3.921875 -10.195312 Z M 0.527344 -5.253906 "/></g></g></g><g fill="#ffffff" fill-opacity="1"><g transform="translate(105.834427, 122.085386)"><g><path d="M 7.929688 -8.289062 L 8.933594 -9.34375 L -2.125 -19.847656 L -4.117188 -17.75 L 0.703125 -13.171875 C 1.242188 -12.664062 1.808594 -12.15625 2.402344 -11.648438 L 2.375 -11.617188 C 1.695312 -11.691406 1.1875 -11.757812 0.492188 -11.816406 L -8.90625 -12.769531 L -9.9375 -11.683594 L 1.121094 -1.179688 L 3.113281 -3.277344 L -2.039062 -8.167969 C -2.464844 -8.574219 -2.90625 -8.992188 -3.378906 -9.410156 L -3.347656 -9.441406 L -1.3125 -9.21875 Z M 7.929688 -8.289062 "/></g></g></g><g fill="#ffffff" fill-opacity="1"><g transform="translate(118.530887, 109.18065)"><g><path d="M 8.519531 -6.386719 L 11.246094 -8.429688 L -2.792969 -17.019531 L -4.429688 -15.796875 L -0.0351562 0.0273438 L 2.589844 -1.941406 L 1.757812 -4.683594 L 6.136719 -7.96875 Z M -0.0976562 -10.378906 C -0.328125 -11.160156 -0.59375 -11.910156 -0.839844 -12.675781 L -0.789062 -12.714844 C -0.144531 -12.21875 0.460938 -11.773438 1.171875 -11.332031 L 4.246094 -9.402344 L 0.945312 -6.925781 Z M -0.0976562 -10.378906 "/></g></g></g><g fill="#ffffff" fill-opacity="1"><g transform="translate(132.849819, 98.917009)"><g><path d="M 2.632812 -18.632812 L -6.820312 -13.597656 L -5.597656 -11.296875 L -2.183594 -13.113281 L 3.738281 -1.992188 L 6.386719 -3.398438 L 0.464844 -14.523438 L 3.859375 -16.332031 Z M 2.632812 -18.632812 "/></g></g></g><g fill="#ffffff" fill-opacity="1"><g transform="translate(146.200817, 91.972213)"><g><path d="M 7.1875 -2.148438 C 11.441406 -3.609375 12.277344 -7.59375 10.84375 -11.765625 C 9.414062 -15.9375 6.261719 -18.550781 2.050781 -17.105469 C -2.164062 -15.660156 -3.027344 -11.6875 -1.585938 -7.496094 C -0.152344 -3.324219 2.953125 -0.691406 7.1875 -2.148438 Z M 6.332031 -4.632812 C 3.910156 -3.800781 2.214844 -5.859375 1.3125 -8.488281 C 0.414062 -11.101562 0.457031 -13.78125 2.902344 -14.621094 C 5.347656 -15.460938 7.050781 -13.378906 7.949219 -10.769531 C 8.851562 -8.140625 8.777344 -5.472656 6.332031 -4.632812 Z M 6.332031 -4.632812 "/></g></g></g><g fill="#ffffff" fill-opacity="1"><g transform="translate(164.090774, 86.429723)"><g/></g></g><g fill="#ffffff" fill-opacity="1"><g transform="translate(172.237134, 84.714962)"><g><path d="M 7.507812 -6.890625 C 9.953125 -7.339844 11.269531 -9.304688 11.078125 -11.578125 C 10.816406 -14.695312 8.894531 -16.015625 5.148438 -15.699219 L 0.34375 -15.292969 L 1.625 -0.136719 L 4.609375 -0.390625 L 4.230469 -4.871094 L 4.078125 -6.691406 L 4.101562 -6.691406 C 4.46875 -6.199219 4.902344 -5.710938 5.292969 -5.242188 L 9.179688 -0.777344 L 12.6875 -1.074219 Z M 3.9375 -8.378906 L 3.535156 -13.121094 L 5.074219 -13.25 C 6.976562 -13.410156 7.902344 -12.769531 8.039062 -11.1875 C 8.175781 -9.542969 7.355469 -8.667969 5.472656 -8.507812 Z M 3.9375 -8.378906 "/></g></g></g><g fill="#ffffff" fill-opacity="1"><g transform="translate(188.964596, 83.523113)"><g><path d="M 7.445312 0.917969 C 11.925781 1.285156 14.292969 -2.027344 14.65625 -6.425781 C 15.015625 -10.820312 13.179688 -14.480469 8.742188 -14.84375 C 4.304688 -15.210938 1.917969 -11.917969 1.554688 -7.5 C 1.191406 -3.105469 2.984375 0.550781 7.445312 0.917969 Z M 7.660156 -1.703125 C 5.105469 -1.914062 4.378906 -4.480469 4.609375 -7.25 C 4.832031 -10 5.949219 -12.4375 8.527344 -12.226562 C 11.101562 -12.011719 11.828125 -9.425781 11.601562 -6.675781 C 11.375 -3.902344 10.238281 -1.492188 7.660156 -1.703125 Z M 7.660156 -1.703125 "/></g></g></g><g fill="#ffffff" fill-opacity="1"><g transform="translate(207.419887, 85.387127)"><g><path d="M 9.621094 -13.226562 L 5.371094 -14.320312 L 1.578125 0.40625 L 5.808594 1.496094 C 10.582031 2.726562 13.570312 -0.34375 14.539062 -4.109375 C 15.519531 -7.917969 14.648438 -11.933594 9.621094 -13.226562 Z M 6.425781 -0.992188 L 5.121094 -1.328125 L 7.632812 -11.089844 L 8.898438 -10.765625 C 11.820312 -10.011719 12.273438 -7.585938 11.574219 -4.871094 C 10.878906 -2.179688 9.117188 -0.300781 6.425781 -0.992188 Z M 6.425781 -0.992188 "/></g></g></g><g fill="#ffffff" fill-opacity="1"><g transform="translate(224.347247, 90.075361)"><g><path d="M 9.886719 -2.46875 C 12.25 -1.691406 14.347656 -2.789062 15.261719 -4.875 C 16.519531 -7.742188 15.464844 -9.820312 12.023438 -11.332031 L 7.605469 -13.269531 L 1.492188 0.65625 L 4.238281 1.859375 L 6.046875 -2.257812 L 6.777344 -3.929688 L 6.800781 -3.917969 C 6.886719 -3.3125 7.035156 -2.675781 7.152344 -2.078125 L 8.433594 3.703125 L 11.65625 5.117188 Z M 7.460938 -5.480469 L 9.375 -9.835938 L 10.785156 -9.214844 C 12.535156 -8.445312 13.042969 -7.441406 12.40625 -5.988281 C 11.742188 -4.476562 10.601562 -4.097656 8.871094 -4.859375 Z M 7.460938 -5.480469 "/></g></g></g><g fill="#ffffff" fill-opacity="1"><g transform="translate(239.661012, 97.300635)"><g><path d="M 1.398438 0.839844 L 3.96875 2.382812 L 11.796875 -10.65625 L 9.226562 -12.199219 Z M 1.398438 0.839844 "/></g></g></g><g fill="#ffffff" fill-opacity="1"><g transform="translate(248.228293, 102.481479)"><g><path d="M 11.5625 -0.621094 L 8.394531 3.414062 C 8.085938 3.28125 7.800781 3.113281 7.546875 2.914062 C 5.460938 1.277344 5.933594 -1.085938 7.757812 -3.410156 C 9.691406 -5.871094 11.953125 -6.886719 14.480469 -4.902344 C 15.351562 -4.21875 15.902344 -3.648438 16.324219 -2.816406 L 17.933594 -4.867188 C 17.464844 -5.679688 16.734375 -6.472656 15.832031 -7.183594 C 12.105469 -10.109375 8.273438 -9.027344 5.402344 -5.371094 C 2.480469 -1.644531 2.378906 2.144531 6.15625 5.105469 C 7.199219 5.925781 8.371094 6.542969 9.347656 6.703125 L 13.75 1.097656 Z M 11.5625 -0.621094 "/></g></g></g><g fill="#ffffff" fill-opacity="1"><g transform="translate(260.923704, 112.721895)"><g><path d="M 4.703125 5.53125 C 7.128906 8.171875 9.871094 8.425781 12.941406 5.601562 L 19.914062 -0.808594 L 17.886719 -3.015625 L 11.074219 3.25 C 9.296875 4.878906 7.960938 5.191406 6.636719 3.753906 C 5.300781 2.296875 5.710938 0.976562 7.484375 -0.65625 L 14.296875 -6.917969 L 12.285156 -9.109375 L 5.308594 -2.699219 C 2.222656 0.140625 2.261719 2.878906 4.703125 5.53125 Z M 4.703125 5.53125 "/></g></g></g><g fill="#ffffff" fill-opacity="1"><g transform="translate(272.868159, 126.295302)"><g><path d="M 4.675781 2.449219 L 8.117188 0.164062 L 11.0625 4.597656 L 13.089844 3.253906 L 10.144531 -1.179688 L 13.128906 -3.164062 L 16.339844 1.667969 L 18.4375 0.273438 L 13.570312 -7.054688 L 0.902344 1.355469 L 5.878906 8.851562 L 7.996094 7.445312 Z M 4.675781 2.449219 "/></g></g></g><g fill="#ffffff" fill-opacity="1"><g transform="translate(281.130168, 139.227513)"><g><path d="M 2.066406 4.910156 C 3.46875 7.875 5.964844 9.027344 8.4375 7.855469 C 10.753906 6.753906 11.085938 4.769531 10.898438 2.140625 C 10.753906 0.167969 10.949219 -0.742188 11.890625 -1.191406 C 12.792969 -1.617188 13.640625 -1.152344 14.234375 0.101562 C 14.765625 1.222656 15.117188 2.523438 15.226562 3.816406 L 17.5625 2.707031 C 17.445312 1.394531 17.128906 0.125 16.386719 -1.445312 C 15.136719 -4.078125 12.960938 -5.015625 10.625 -3.910156 C 8.703125 -2.996094 7.917969 -1.300781 8.128906 1.578125 C 8.296875 3.855469 8.039062 4.628906 7.132812 5.058594 C 6.035156 5.578125 4.996094 5.011719 4.234375 3.402344 C 3.65625 2.183594 3.363281 0.859375 3.25 -0.601562 L 0.835938 0.542969 C 0.925781 1.796875 1.28125 3.261719 2.066406 4.910156 Z M 2.066406 4.910156 "/></g></g></g><g fill="#ffffff" fill-opacity="1"><g transform="translate(102.414088, 266.873593)"><g><path d="M 2.792969 2.621094 L 3.789062 3.523438 L 9.246094 0.765625 C 9.933594 0.429688 10.617188 0.0664062 11.289062 -0.28125 L 11.316406 -0.253906 C 11.023438 0.386719 10.742188 1.039062 10.5 1.703125 L 8.257812 7.5625 L 9.257812 8.46875 L 20.398438 1.722656 L 18.492188 -0.00390625 L 13.621094 2.953125 C 12.867188 3.417969 12.164062 3.878906 11.546875 4.324219 L 11.507812 4.289062 C 11.804688 3.695312 12.140625 2.953125 12.457031 2.234375 L 14.519531 -2.925781 L 13.636719 -3.722656 L 8.492188 -1.042969 C 7.878906 -0.710938 7.308594 -0.367188 6.734375 -0.0234375 L 6.710938 -0.0507812 C 7.054688 -0.667969 7.503906 -1.480469 7.84375 -2.175781 L 10.316406 -7.394531 L 8.398438 -9.128906 Z M 2.792969 2.621094 "/></g></g></g><g fill="#ffffff" fill-opacity="1"><g transform="translate(117.984148, 280.21418)"><g><path d="M 4.289062 0.378906 L 6.164062 -2.421875 L 9.769531 -0.00390625 L 10.875 -1.652344 L 7.265625 -4.070312 L 8.894531 -6.5 L 12.824219 -3.867188 L 13.96875 -5.574219 L 8.003906 -9.566406 L 1.105469 0.738281 L 7.199219 4.820312 L 8.355469 3.097656 Z M 4.289062 0.378906 "/></g></g></g><g fill="#ffffff" fill-opacity="1"><g transform="translate(129.362624, 287.574041)"><g><path d="M 9.855469 -2.4375 C 10.804688 -2.429688 11.777344 -2.96875 12.332031 -4.058594 C 13.28125 -5.921875 12.484375 -7.558594 10.273438 -8.6875 L 6.816406 -10.449219 L 1.183594 0.601562 L 4.847656 2.46875 C 7.355469 3.75 9.230469 3.273438 10.300781 1.171875 C 11 -0.199219 10.835938 -1.4375 9.855469 -2.4375 Z M 10.085938 -4.804688 C 9.621094 -3.886719 8.777344 -3.71875 7.816406 -4.210938 L 6.628906 -4.816406 L 8.046875 -7.59375 L 9.277344 -6.964844 C 10.273438 -6.457031 10.578125 -5.765625 10.085938 -4.804688 Z M 5.542969 0.597656 L 4.214844 -0.078125 L 5.851562 -3.285156 L 7.175781 -2.605469 C 8.359375 -2.003906 8.703125 -1.152344 8.164062 -0.09375 C 7.601562 1.007812 6.773438 1.226562 5.542969 0.597656 Z M 5.542969 0.597656 "/></g></g></g><g fill="#ffffff" fill-opacity="1"><g transform="translate(142.227565, 293.754973)"><g/></g></g><g fill="#ffffff" fill-opacity="1"><g transform="translate(149.333127, 296.574683)"><g><path d="M 8.152344 -10.558594 L 4.714844 -11.550781 L 1.277344 0.367188 L 4.699219 1.355469 C 8.5625 2.46875 11.074219 0.0390625 11.953125 -3.007812 C 12.839844 -6.089844 12.222656 -9.386719 8.152344 -10.558594 Z M 5.261719 -0.660156 L 4.207031 -0.964844 L 6.484375 -8.863281 L 7.503906 -8.570312 C 9.871094 -7.886719 10.183594 -5.898438 9.550781 -3.699219 C 8.921875 -1.519531 7.441406 -0.03125 5.261719 -0.660156 Z M 5.261719 -0.660156 "/></g></g></g><g fill="#ffffff" fill-opacity="1"><g transform="translate(164.254881, 300.558706)"><g><path d="M 4.054688 -1.457031 L 4.582031 -4.78125 L 8.867188 -4.101562 L 9.179688 -6.058594 L 4.890625 -6.742188 L 5.351562 -9.628906 L 10.023438 -8.886719 L 10.347656 -10.917969 L 3.257812 -12.042969 L 1.3125 0.207031 L 8.558594 1.359375 L 8.882812 -0.6875 Z M 4.054688 -1.457031 "/></g></g></g><g fill="#ffffff" fill-opacity="1"><g transform="translate(177.692891, 302.505988)"><g><path d="M 4.992188 0.234375 L 6.675781 0.292969 L 12.0625 -12.011719 L 9.425781 -12.097656 L 7 -6.347656 C 6.632812 -5.4375 6.304688 -4.613281 6.007812 -3.703125 L 5.957031 -3.703125 C 5.738281 -4.632812 5.464844 -5.457031 5.15625 -6.371094 L 3.121094 -12.308594 L 0.445312 -12.394531 Z M 4.992188 0.234375 "/></g></g></g><g fill="#ffffff" fill-opacity="1"><g transform="translate(193.424176, 302.706926)"><g><path d="M 3.570312 -2.410156 L 3.261719 -5.761719 L 7.585938 -6.160156 L 7.402344 -8.136719 L 3.082031 -7.738281 L 2.8125 -10.648438 L 7.523438 -11.082031 L 7.335938 -13.128906 L 0.191406 -12.472656 L 1.324219 -0.121094 L 8.628906 -0.792969 L 8.441406 -2.855469 Z M 3.570312 -2.410156 "/></g></g></g><g fill="#ffffff" fill-opacity="1"><g transform="translate(206.864853, 301.230141)"><g><path d="M 1.300781 -0.269531 L 8.367188 -1.722656 L 7.933594 -3.824219 L 3.265625 -2.863281 L 1.191406 -12.910156 L -1.203125 -12.417969 Z M 1.300781 -0.269531 "/></g></g></g><g fill="#ffffff" fill-opacity="1"><g transform="translate(219.438639, 298.489579)"><g><path d="M 5.867188 -1.730469 C 9.34375 -2.90625 10.035156 -6.15625 8.882812 -9.5625 C 7.726562 -12.96875 5.164062 -15.113281 1.722656 -13.945312 C -1.714844 -12.777344 -2.433594 -9.542969 -1.269531 -6.117188 C -0.117188 -2.710938 2.414062 -0.554688 5.867188 -1.730469 Z M 5.179688 -3.757812 C 3.199219 -3.089844 1.824219 -4.773438 1.09375 -6.921875 C 0.371094 -9.050781 0.417969 -11.238281 2.414062 -11.914062 C 4.410156 -12.59375 5.792969 -10.890625 6.515625 -8.761719 C 7.242188 -6.613281 7.175781 -4.4375 5.179688 -3.757812 Z M 5.179688 -3.757812 "/></g></g></g><g fill="#ffffff" fill-opacity="1"><g transform="translate(234.771628, 292.941882)"><g><path d="M -1.042969 -13.3125 L -4.285156 -11.714844 L 1.191406 -0.585938 L 3.386719 -1.667969 L 1.546875 -5.402344 L 2.660156 -5.949219 C 5.269531 -7.234375 6.3125 -9.328125 5.082031 -11.824219 C 3.800781 -14.429688 1.695312 -14.660156 -1.042969 -13.3125 Z M 1.691406 -7.761719 L 0.640625 -7.246094 L -1.183594 -10.953125 L -0.132812 -11.46875 C 1.265625 -12.15625 2.214844 -11.992188 2.855469 -10.6875 C 3.484375 -9.417969 3.089844 -8.453125 1.691406 -7.761719 Z M 1.691406 -7.761719 "/></g></g></g><g fill="#ffffff" fill-opacity="1"><g transform="translate(247.493854, 286.390975)"><g><path d="M 2.039062 -3.792969 L 0.203125 -6.617188 L 3.847656 -8.980469 L 2.765625 -10.644531 L -0.875 -8.28125 L -2.46875 -10.734375 L 1.5 -13.3125 L 0.382812 -15.035156 L -5.636719 -11.128906 L 1.113281 -0.722656 L 7.269531 -4.71875 L 6.140625 -6.457031 Z M 2.039062 -3.792969 "/></g></g></g><g fill="#ffffff" fill-opacity="1"><g transform="translate(258.755815, 278.839394)"><g><path d="M 1.785156 -8.117188 C 3.207031 -9.5625 3.167969 -11.492188 1.976562 -12.917969 C 0.339844 -14.878906 -1.5625 -14.859375 -3.914062 -12.894531 L -6.933594 -10.371094 L 1.019531 -0.851562 L 2.894531 -2.421875 L 0.542969 -5.234375 L -0.410156 -6.378906 L -0.398438 -6.386719 C 0.0820312 -6.234375 0.597656 -6.109375 1.078125 -5.980469 L 5.765625 -4.816406 L 7.96875 -6.660156 Z M -1.296875 -7.4375 L -3.785156 -10.414062 L -2.820312 -11.222656 C -1.621094 -12.222656 -0.703125 -12.226562 0.125 -11.234375 C 0.988281 -10.203125 0.851562 -9.234375 -0.332031 -8.246094 Z M -1.296875 -7.4375 "/></g></g></g><g fill="#ffffff" fill-opacity="1"><g transform="translate(269.795463, 269.152301)"><g/></g></g></svg>